<svg width="904" height="574" viewBox="0 0 904 574" fill="none" xmlns="http://www.w3.org/2000/svg">
<path d="M353.881 258.769C457.233 73.1846 819.618 148.867 904 204.476V387.428V574H0C0 388.251 299.023 357.276 353.881 258.769Z" fill="white"/>
<path opacity="0.7" fill-rule="evenodd" clip-rule="evenodd" d="M577.148 261C588.976 260.454 603.48 266.698 604.775 278.251C605.725 286.681 605.38 295.033 606.847 303.463C607.97 310.176 610.387 316.655 613.668 322.743C616.776 328.598 623.337 333.671 624.978 339.916C626.014 343.897 625.409 349.517 623.942 353.498C622.129 358.259 623.078 357.869 626.704 361.85C633.784 369.656 640.086 377.696 644.576 387.062C651.051 400.566 655.281 416.256 652.864 431.009C652.519 432.882 652.173 439.595 649.324 440.063C646.13 440.61 647.597 436.707 647.77 435.536C648.893 427.652 649.842 420.705 648.547 412.665C643.54 381.598 618.848 361.147 602.79 334.842C601.926 333.515 600.027 330.237 598.732 328.129C596.66 324.773 594.674 318.372 591.911 315.874C586.731 311.191 591.48 320.636 592.516 322.431C593.811 324.695 595.192 327.115 596.487 329.144C602.531 338.433 609.178 348.58 615.395 358.103C588.544 363.645 569.551 334.452 562.385 315.25C556.514 299.326 549.434 262.327 577.148 261Z" fill="#3E8F46"/>
<path opacity="0.7" fill-rule="evenodd" clip-rule="evenodd" d="M735.141 231.572C715.457 232.977 702.766 244.764 696.895 261.156C693.701 270.055 693.355 279.109 691.628 288.242C688.952 301.98 683.254 312.362 672.117 322.119C668.663 325.163 666.073 328.207 664.347 331.564C660.721 334.842 657.612 338.667 655.368 343.194C652.432 349.049 651.569 356.074 655.022 361.928C655.972 363.489 658.217 366.611 660.548 368.095C651.742 385.111 646.907 403.689 647.425 422.266C647.77 433.507 648.375 444.669 649.065 455.909C649.238 458.953 650.36 463.871 652.001 458.875C653.468 454.27 651.655 447.011 651.483 442.171C650.619 418.676 649.929 397.366 660.634 375.432C661.757 373.168 662.965 370.827 664.174 368.563C664.26 368.563 664.347 368.485 664.347 368.407C664.433 368.407 664.433 368.485 664.519 368.485C664.606 368.329 664.692 368.173 664.865 368.017C665.21 367.704 665.555 367.236 665.814 366.768C666.764 365.597 667.8 364.192 667.8 363.411C674.448 353.654 681.959 344.443 689.729 335.389C689.643 335.467 698.104 325.007 696.809 330.783C696.204 333.593 689.988 338.823 687.484 341.789C681.959 348.346 675.397 356.62 669.958 364.582C669.268 364.972 668.232 366.846 667.455 368.173C667.023 368.875 666.678 369.578 666.246 370.202C685.499 375.978 700.435 364.348 710.622 350.922C710.622 350.922 710.622 350.922 710.622 350.844C713.73 347.097 716.925 343.429 720.896 340.462C727.544 335.545 734.623 334.686 742.393 332.266C763.718 325.71 772.697 300.731 775.632 282.232C778.654 261.546 762.855 229.543 735.141 231.572Z" fill="#59C163"/>
<path opacity="0.7" fill-rule="evenodd" clip-rule="evenodd" d="M696.204 173.108C676.002 192.154 666.246 218.537 658.476 243.359C649.842 271.069 644.144 299.248 643.885 328.051C643.712 347.019 643.194 366.065 644.403 384.955C644.835 391.668 645.612 398.381 646.734 405.016C646.82 405.562 649.497 420.393 652.001 416.958C653.468 415.007 649.324 401.581 648.979 399.318C647.252 386.75 646.821 374.027 646.907 361.382C647.08 340.462 646.389 319.699 648.72 298.936C649.065 295.814 649.324 292.535 650.188 289.491C651.051 286.291 649.929 287.696 652.778 286.369C655.54 285.12 658.907 285.276 661.756 283.715C673.066 277.548 678.851 261.624 683.34 251.243C688.52 239.3 691.628 226.577 694.132 214.088C695.945 204.877 697.24 195.666 698.017 186.377C698.276 183.411 698.276 180.367 698.881 177.479C699.053 176.698 699.917 175.293 699.917 174.591C699.83 173.108 698.881 172.249 698.794 171C697.845 171.703 696.981 172.405 696.204 173.108Z" fill="#59C163"/>
<path opacity="0.7" fill-rule="evenodd" clip-rule="evenodd" d="M585.954 426.637C585.954 458.095 614.186 483.619 648.979 483.619C683.772 483.619 712.003 458.095 712.003 426.637" fill="#4B3B82"/>
<path opacity="0.7" fill-rule="evenodd" clip-rule="evenodd" d="M653.986 426.872H650.619C650.878 423.125 651.137 419.3 651.828 415.553C654.504 401.269 662.879 380.271 681.182 377.93C681.873 377.852 684.376 377.852 687.398 378.008C688.866 377.305 690.42 376.837 692.146 376.759C707.773 375.744 725.126 387.062 732.724 398.927C738.767 408.45 737.731 421.017 734.019 431.165C731.515 437.956 726.076 447.635 716.925 447.713C705.528 447.869 704.924 435.068 704.751 427.574C704.492 417.661 703.111 408.997 694.391 402.284C692.405 400.722 690.161 399.317 688.175 397.756C684.981 395.337 681.441 392.839 681.096 388.78C680.491 383.238 684.031 382.223 689.297 383.238C690.161 383.394 699.312 387.062 697.931 384.174C697.499 383.316 696.031 382.613 694.132 382.067C689.211 381.598 683.427 381.052 681.7 381.364C663.569 384.955 656.49 407.67 654.677 422.11C654.332 423.749 654.159 425.311 653.986 426.872Z" fill="#3E8F46"/>
<path fill-rule="evenodd" clip-rule="evenodd" d="M393.014 117.891H362.079L367.364 75.416C358.985 81.1678 350.865 83.97 346.998 82.7902C337.33 79.988 336.428 39.5773 343.904 23.6491C351.38 7.72079 389.792 0.789035 391.725 32.3506C392.37 43.2644 388.374 53.1459 382.445 61.11L393.014 117.891Z" fill="#F7B594"/>
<path fill-rule="evenodd" clip-rule="evenodd" d="M380.769 68.1893L378.965 51.966C380.898 44.8868 380.125 40.4623 376.515 38.545C372.906 36.7752 369.297 39.2824 365.688 46.2141H361.95C360.79 40.3148 358.856 36.9226 356.278 35.7428C347.9 32.2032 341.842 34.2679 336.944 34.2679C331.53 12.7353 344.033 2.85382 364.657 0.346595C378.449 -1.42321 386.57 3.59124 389.019 15.2425C393.917 16.7173 396.881 20.4044 398.042 26.1563C399.717 35.0053 388.632 48.4264 384.765 68.1893H380.769V68.1893Z" fill="#191847"/>
<path fill-rule="evenodd" clip-rule="evenodd" d="M500 325.844V461.529C500 474.508 490.719 485.127 479.376 485.127H331.143C319.8 485.127 310.519 474.508 310.519 461.529V325.844C310.519 312.865 319.8 302.246 331.143 302.246H479.376C490.719 302.246 500 312.865 500 325.844ZM351.767 343.542C348.931 343.542 346.611 346.197 346.611 349.441V437.932C346.611 441.176 348.931 443.831 351.767 443.831H458.753C461.588 443.831 463.908 441.176 463.908 437.932V349.441C463.908 346.197 461.588 343.542 458.753 343.542H351.767Z" fill="#818181"/>
<path fill-rule="evenodd" clip-rule="evenodd" d="M168.731 468.166C203.792 379.233 226.607 326.434 237.305 309.621C244.395 298.559 275.588 309.621 266.178 333.513C262.183 343.542 249.68 369.647 234.212 398.996C225.189 416.104 208.045 442.504 182.652 477.9L168.731 468.166Z" fill="#C98B6F"/>
<path fill-rule="evenodd" clip-rule="evenodd" d="M173.887 439.259C178.914 431.443 219.002 327.909 235.887 301.657C243.364 290.153 292.216 306.376 282.033 331.301L234.727 467.576L173.887 439.259Z" fill="#3E8F46"/>
<path fill-rule="evenodd" clip-rule="evenodd" d="M347.716 451.831C343.391 447.445 291.356 397.572 255.775 360.607C241.47 345.831 270.486 317.715 284.829 334.069C289.704 339.543 294.795 345.41 300.004 351.579C318.077 372.926 351.281 424.662 360.381 440.022C366.148 449.599 353.853 458.087 347.716 451.831Z" fill="#F7B594"/>
<path fill-rule="evenodd" clip-rule="evenodd" d="M358.828 432.579C357.698 431.669 356.08 431.995 355.243 433.348C352.998 436.889 351.13 439.123 349.508 440.309C347.47 441.742 344.386 442.665 340.366 443.15L335.974 439.251C335.496 438.767 334.688 438.93 334.182 439.636L312.057 474.398C309.863 476.419 307.187 478.816 303.962 481.718C300.737 484.621 301.306 488.616 305.91 493.516C345.662 466.279 366.612 451.979 368.891 450.358C367.475 445.466 366.183 442.034 365.037 439.734C364.086 437.905 362.155 435.438 359.112 432.592C358.828 432.579 358.828 432.579 358.828 432.579Z" fill="#E4E4E4"/>
<path fill-rule="evenodd" clip-rule="evenodd" d="M193.48 472.296C192.835 470.821 191.417 470.231 190 470.821C186.648 472.591 183.941 473.475 182.008 473.475C179.688 473.475 176.594 472.443 172.856 470.526L170.665 464.479C170.407 463.741 169.634 463.446 168.989 463.741L135.347 480.85C132.64 481.292 129.289 481.882 125.164 482.324C121.039 482.767 120.008 486.749 121.941 493.828C167.7 493.828 191.933 493.828 194.64 493.828C195.413 488.666 195.8 484.832 195.8 482.177C195.8 479.965 195.027 476.72 193.609 472.296C193.609 472.443 193.609 472.296 193.48 472.296Z" fill="#E4E4E4"/>
<path fill-rule="evenodd" clip-rule="evenodd" d="M298.919 342.952L345.967 411.975L288.607 453.713C247.23 372.744 226.607 332.186 226.478 331.891C224.287 325.106 221.966 304.606 234.212 297.527C302.528 262.721 341.197 243.695 350.478 240.598H420.599C427.172 291.775 416.087 315.225 378.062 322.894C364.657 325.549 338.362 330.563 299.048 337.938C297.759 338.528 297.759 340.15 298.919 342.952Z" fill="#59C163"/>
<path fill-rule="evenodd" clip-rule="evenodd" d="M303.172 247.235L262.44 266.555C250.969 282.041 244.524 288.53 243.106 285.876C241.043 282.041 245.555 278.649 244.524 275.699C243.492 272.75 235.758 273.192 228.411 273.782C221.064 274.372 223.255 270.685 224.931 268.915C232.407 263.753 241.688 259.476 252.902 256.084L294.021 221.573L303.172 247.235ZM468.549 316.847C470.353 321.124 484.017 334.103 493.555 341.625C497.422 344.574 495.746 348.409 494.329 349.441C482.599 357.7 474.994 347.966 464.811 342.51C453.726 336.61 454.628 353.276 445.863 348.704C448.57 341.772 454.886 328.941 451.921 320.387C450.632 316.7 441.609 284.106 424.981 222.605L451.921 222.458C460.428 279.681 465.971 311.095 468.549 316.847Z" fill="#F7B594"/>
<path fill-rule="evenodd" clip-rule="evenodd" d="M267.339 269.505L255.093 252.249C305.75 210.659 322.765 132.05 364.141 91.1967L375.226 93.409C377.16 161.252 355.247 256.969 267.339 269.505Z" fill="#4B3B82"/>
<path fill-rule="evenodd" clip-rule="evenodd" d="M387.601 85.4449L359.114 90.6068C359.114 152.403 329.725 199.008 322.249 242.368C321.605 246.055 320.702 253.577 325.214 253.577C346.224 253.577 379.093 253.577 423.821 253.577C419.31 182.047 411.189 128.805 387.601 85.4449Z" fill="#DDE3E9"/>
<path fill-rule="evenodd" clip-rule="evenodd" d="M469.064 315.52H447.925C443.671 307.113 439.289 296.789 434.777 284.548H357.052C345.58 251.364 352.669 185.292 378.191 86.1823L387.085 85.5923C387.858 85.4449 388.761 85.4449 389.792 85.4449C407.451 85.4449 417.376 77.4807 428.461 81.3153C439.547 85.1499 443.285 96.9486 432.973 118.481C430.524 123.496 427.301 126.593 423.177 127.92C455.788 179.392 470.998 241.925 469.064 315.52Z" fill="#7159C1"/>
<path fill-rule="evenodd" clip-rule="evenodd" d="M434.649 284.548H405.904C411.447 273.929 415.314 256.969 417.763 233.666C423.692 253.282 429.364 270.242 434.649 284.548Z" fill="black" fill-opacity="0.1"/>
</svg>
