<svg width="20" height="20" viewBox="0 0 20 20" fill="none" xmlns="http://www.w3.org/2000/svg">
<path d="M2.88906 1.01559C1.51417 1.01559 0.615234 1.91841 0.615234 3.10505C0.615234 4.26548 1.48739 5.19405 2.8363 5.19405H2.8624C4.26418 5.19405 5.13657 4.26548 5.13657 3.10505C5.11036 1.91841 4.26418 1.01559 2.88906 1.01559Z" fill="#818181"/>
<path d="M0.852783 6.84509H4.87218V18.9376H0.852783V6.84509Z" fill="#818181"/>
<path d="M14.738 6.56128C12.5697 6.56128 11.1157 8.59879 11.1157 8.59879V6.84509H7.09619V18.9376H11.1155V12.1847C11.1155 11.8232 11.1417 11.4622 11.2479 11.2037C11.5384 10.4818 12.1997 9.73393 13.3101 9.73393C14.7645 9.73393 15.3462 10.8429 15.3462 12.4685V18.9376H19.3653V12.004C19.3653 8.28968 17.3823 6.56128 14.738 6.56128Z" fill="#818181"/>
</svg>
