<svg width="200" height="44" viewBox="0 0 200 44" fill="none" xmlns="http://www.w3.org/2000/svg">
<g clip-path="url(#clip0)">
<path d="M42.6653 37.5022L32.1614 26.9987C36.509 20.2861 35.7478 11.4794 30.3132 5.61229C24.8785 -0.254858 16.1556 -1.68667 9.13048 2.13525C2.10535 5.95709 -1.43113 14.0583 0.542347 21.8085C2.51583 29.5587 9.49621 34.9818 17.4936 34.9784C20.8713 34.9812 24.1766 33.9999 27.0057 32.1544L37.5095 42.6586C38.9334 44.0823 41.2419 44.0823 42.6656 42.6584C44.0893 41.2344 44.0892 38.926 42.6653 37.5022ZM17.4936 33.5207C8.63809 33.5207 1.45931 26.3419 1.45931 17.4865C1.4693 8.63511 8.64228 1.46222 17.4936 1.45223C26.349 1.45223 33.5278 8.63102 33.5278 17.4865C33.5278 26.3419 26.3491 33.5207 17.4936 33.5207ZM41.6347 41.6272C40.768 42.4519 39.4068 42.452 38.54 41.6276L28.2093 31.2969C29.3654 30.3979 30.4049 29.3585 31.3038 28.2024L41.6347 38.5329C42.4874 39.3881 42.4874 40.7719 41.6347 41.6272Z" fill="#3E8F46"/>
<path d="M17.4936 2.90891C9.4431 2.90891 2.91693 9.43507 2.91693 17.4856C2.92598 25.5323 9.44686 32.0531 17.4936 32.0622C25.5441 32.0622 32.0702 25.536 32.0702 17.4856C32.0702 9.43507 25.5441 2.90891 17.4936 2.90891ZM17.4936 30.6044C10.2482 30.6044 4.37462 24.7309 4.37462 17.4855C4.38291 10.2435 10.2516 4.37479 17.4936 4.36651C24.739 4.36651 30.6125 10.2401 30.6125 17.4855C30.6125 24.7309 24.739 30.6044 17.4936 30.6044Z" fill="#59C163"/>
<path d="M40.3533 39.4181C40.035 39.2881 39.6694 39.4005 39.4791 39.6868C39.2888 39.973 39.3268 40.3537 39.5699 40.5967C39.7097 40.7296 39.8944 40.8051 40.0874 40.8081C40.4311 40.8048 40.7247 40.5595 40.7893 40.2219C40.8539 39.8844 40.6714 39.548 40.3533 39.4181Z" fill="#3E8F46"/>
<path d="M25.5107 11.6549H22.5954V10.1972C22.5945 9.39255 21.9425 8.74044 21.1378 8.7395H13.8495C13.0448 8.74044 12.3927 9.39246 12.3918 10.1972V11.6549H9.47649C8.67184 11.6558 8.01974 12.3079 8.0188 13.1126V16.6684C8.01999 17.2988 8.28417 17.9 8.7476 18.3272V23.3161C8.74854 24.1208 9.40056 24.7729 10.2053 24.7738H24.7819C25.5866 24.7729 26.2387 24.1208 26.2396 23.3161V18.3272C26.7031 17.9 26.9672 17.2988 26.9684 16.6684V13.1126C26.9675 12.3078 26.3154 11.6557 25.5107 11.6549ZM13.8495 10.1972H21.1378V11.6549H13.8495V10.1972ZM24.7819 23.3161H10.2053V18.9342C10.2352 18.9354 10.2633 18.9432 10.2935 18.9432H16.7648V19.672C16.7648 20.0745 17.091 20.4008 17.4936 20.4008C17.8961 20.4008 18.2224 20.0745 18.2224 19.672V18.9432H24.6936C24.7239 18.9432 24.752 18.9354 24.7819 18.9342L24.7819 23.3161ZM25.5107 16.6684C25.5102 17.1195 25.1447 17.485 24.6936 17.4856H10.2935C9.84247 17.485 9.47692 17.1195 9.4764 16.6684V13.1126H25.5107L25.5107 16.6684Z" fill="#818181"/>
</g>
<path d="M66.5281 28.7683C63.8176 28.7683 61.6081 27.9369 59.8998 26.2741C58.2028 24.6113 57.3544 22.3962 57.3544 19.6287V19.1504C57.3544 17.294 57.7131 15.6369 58.4306 14.1791C59.1481 12.71 60.1617 11.5825 61.4714 10.7966C62.7926 9.99942 64.2959 9.60081 65.9814 9.60081C68.5098 9.60081 70.4971 10.398 71.9435 11.9925C73.4013 13.5869 74.1302 15.8476 74.1302 18.7745V20.7904H62.3598C62.5192 21.9976 62.9976 22.9657 63.7948 23.6945C64.6034 24.4234 65.6227 24.7879 66.8527 24.7879C68.7546 24.7879 70.2409 24.0988 71.3114 22.7208L73.7373 25.437C72.997 26.4848 71.9948 27.3048 70.7306 27.897C69.4664 28.4779 68.0656 28.7683 66.5281 28.7683ZM65.9644 13.5983C64.9849 13.5983 64.1877 13.9286 63.5727 14.5891C62.9691 15.2497 62.5819 16.195 62.411 17.425H69.2785V17.0321C69.2557 15.9387 68.9596 15.0959 68.3902 14.5037C67.8207 13.9001 67.0121 13.5983 65.9644 13.5983Z" fill="#4B3B82"/>
<path d="M86.5497 19.7654H76.9318V15.785H86.5497V19.7654Z" fill="#4B3B82"/>
<path d="M100.9 14.5721C100.228 14.4809 99.6356 14.4354 99.1231 14.4354C97.2553 14.4354 96.031 15.0675 95.4501 16.3316V28.4266H90.5131V9.94248H95.1768L95.3135 12.1462C96.3043 10.4493 97.6767 9.60081 99.4306 9.60081C99.9772 9.60081 100.49 9.67484 100.968 9.82289L100.9 14.5721Z" fill="#4B3B82"/>
<path d="M111.457 28.7683C108.747 28.7683 106.537 27.9369 104.829 26.2741C103.132 24.6113 102.283 22.3962 102.283 19.6287V19.1504C102.283 17.294 102.642 15.6369 103.36 14.1791C104.077 12.71 105.091 11.5825 106.401 10.7966C107.722 9.99942 109.225 9.60081 110.911 9.60081C113.439 9.60081 115.426 10.398 116.873 11.9925C118.33 13.5869 119.059 15.8476 119.059 18.7745V20.7904H107.289C107.448 21.9976 107.927 22.9657 108.724 23.6945C109.532 24.4234 110.552 24.7879 111.782 24.7879C113.684 24.7879 115.17 24.0988 116.241 22.7208L118.666 25.437C117.926 26.4848 116.924 27.3048 115.66 27.897C114.396 28.4779 112.995 28.7683 111.457 28.7683ZM110.893 13.5983C109.914 13.5983 109.117 13.9286 108.502 14.5891C107.898 15.2497 107.511 16.195 107.34 17.425H114.208V17.0321C114.185 15.9387 113.889 15.0959 113.319 14.5037C112.75 13.9001 111.941 13.5983 110.893 13.5983Z" fill="#4B3B82"/>
<path d="M129.566 24.7879C130.477 24.7879 131.217 24.5373 131.786 24.0362C132.356 23.5351 132.652 22.8688 132.675 22.0375H137.304C137.293 23.2902 136.951 24.4405 136.279 25.4883C135.607 26.5247 134.685 27.3333 133.512 27.9141C132.35 28.4836 131.063 28.7683 129.651 28.7683C127.009 28.7683 124.925 27.9312 123.398 26.257C121.872 24.5715 121.109 22.2482 121.109 19.287V18.9625C121.109 16.1152 121.867 13.8432 123.381 12.1462C124.896 10.4493 126.975 9.60081 129.617 9.60081C131.929 9.60081 133.779 10.2614 135.169 11.5825C136.57 12.8922 137.281 14.6404 137.304 16.8271H132.675C132.652 15.8704 132.356 15.0959 131.786 14.5037C131.217 13.9001 130.465 13.5983 129.531 13.5983C128.381 13.5983 127.51 14.0197 126.918 14.8625C126.337 15.6939 126.046 17.0491 126.046 18.9283V19.4408C126.046 21.3427 126.337 22.7094 126.918 23.5408C127.498 24.3722 128.381 24.7879 129.566 24.7879Z" fill="#4B3B82"/>
<path d="M150.51 14.5721C149.838 14.4809 149.245 14.4354 148.733 14.4354C146.865 14.4354 145.641 15.0675 145.06 16.3316V28.4266H140.123V9.94248H144.787L144.923 12.1462C145.914 10.4493 147.287 9.60081 149.04 9.60081C149.587 9.60081 150.1 9.67484 150.578 9.82289L150.51 14.5721Z" fill="#4B3B82"/>
<path d="M163.971 26.5475C162.753 28.028 161.067 28.7683 158.915 28.7683C156.933 28.7683 155.418 28.1988 154.37 27.06C153.334 25.9211 152.805 24.2526 152.782 22.0545V9.94248H157.719V21.8837C157.719 23.8084 158.596 24.7708 160.35 24.7708C162.024 24.7708 163.174 24.19 163.8 23.0283V9.94248H168.755V28.4266H164.108L163.971 26.5475Z" fill="#4B3B82"/>
<path d="M178.39 5.39832V9.94248H181.55V13.5641H178.39V22.7891C178.39 23.4725 178.521 23.9622 178.783 24.2583C179.044 24.5544 179.546 24.7025 180.286 24.7025C180.833 24.7025 181.317 24.6626 181.738 24.5829V28.3241C180.77 28.6202 179.773 28.7683 178.748 28.7683C175.286 28.7683 173.521 27.0201 173.453 23.5237V13.5641H170.753V9.94248H173.453V5.39832H178.39Z" fill="#4B3B82"/>
<path d="M195.012 28.4266C194.784 27.9825 194.619 27.4301 194.516 26.7695C193.32 28.102 191.766 28.7683 189.853 28.7683C188.042 28.7683 186.538 28.2444 185.343 27.1966C184.158 26.1488 183.566 24.8277 183.566 23.2333C183.566 21.2744 184.289 19.7711 185.735 18.7233C187.193 17.6755 189.294 17.1459 192.039 17.1346H194.311V16.0754C194.311 15.2212 194.089 14.5379 193.645 14.0254C193.212 13.5129 192.523 13.2566 191.578 13.2566C190.747 13.2566 190.092 13.4559 189.613 13.8546C189.146 14.2532 188.913 14.7998 188.913 15.4946H183.976C183.976 14.424 184.306 13.4332 184.967 12.5221C185.627 11.6109 186.561 10.8991 187.768 10.3866C188.976 9.86275 190.331 9.60081 191.834 9.60081C194.112 9.60081 195.917 10.1759 197.25 11.3262C198.593 12.4651 199.265 14.0709 199.265 16.1437V24.1558C199.277 25.9097 199.522 27.2365 200 28.1362V28.4266H195.012ZM190.929 24.9929C191.658 24.9929 192.33 24.8334 192.945 24.5145C193.56 24.1843 194.015 23.7458 194.311 23.1991V20.0216H192.466C189.995 20.0216 188.679 20.8758 188.52 22.5841L188.503 22.8745C188.503 23.4895 188.719 23.9963 189.152 24.395C189.585 24.7936 190.177 24.9929 190.929 24.9929Z" fill="#4B3B82"/>
<defs>
<clipPath id="clip0">
<rect width="43.7333" height="43.7333" fill="white"/>
</clipPath>
</defs>
</svg>
