<svg width="15" height="19" viewBox="0 0 15 19" fill="none" xmlns="http://www.w3.org/2000/svg">
<path d="M12.588 10.137H2.43537C2.29091 10.137 2.17383 10.2616 2.17383 10.4153C2.17383 10.5689 2.29091 10.6935 2.43537 10.6935H12.5879C12.7324 10.6935 12.8495 10.5689 12.8495 10.4153C12.8495 10.2616 12.7324 10.137 12.588 10.137Z" fill="#818181"/>
<path d="M12.588 12.0583H2.43537C2.29091 12.0583 2.17383 12.1829 2.17383 12.3366C2.17383 12.4903 2.29091 12.6149 2.43537 12.6149H12.5879C12.7324 12.6149 12.8495 12.4902 12.8495 12.3366C12.8495 12.1829 12.7324 12.0583 12.588 12.0583Z" fill="#818181"/>
<path d="M12.8495 14.2579C12.8495 14.1042 12.7324 13.9796 12.588 13.9796H2.43537C2.29091 13.9796 2.17383 14.1042 2.17383 14.2579C2.17383 14.4116 2.29091 14.5361 2.43537 14.5361H12.5879C12.7324 14.5361 12.8495 14.4115 12.8495 14.2579Z" fill="#818181"/>
<path d="M2.43537 15.9009C2.29091 15.9009 2.17383 16.0255 2.17383 16.1791C2.17383 16.3328 2.29091 16.4574 2.43537 16.4574H7.49996C7.64443 16.4574 7.76151 16.3328 7.76151 16.1791C7.76151 16.0255 7.64443 15.9009 7.49996 15.9009H2.43537Z" fill="#818181"/>
<path d="M12.5879 6.88401H8.85725C8.71279 6.88401 8.5957 7.00863 8.5957 7.1623C8.5957 7.316 8.71279 7.44058 8.85725 7.44058H12.5879C12.7323 7.44058 12.8494 7.31597 12.8494 7.1623C12.8494 7.00859 12.7323 6.88401 12.5879 6.88401Z" fill="#818181"/>
<path d="M12.5879 5.37503H8.85725C8.71279 5.37503 8.5957 5.49964 8.5957 5.65331C8.5957 5.80698 8.71279 5.93159 8.85725 5.93159H12.5879C12.7323 5.93159 12.8494 5.80698 12.8494 5.65331C12.8494 5.49964 12.7323 5.37503 12.5879 5.37503Z" fill="#818181"/>
<path d="M14.318 15.8069C14.4625 15.8069 14.5796 15.6823 14.5796 15.5286V4.24639C14.5796 3.8642 14.4337 3.52079 14.2006 3.27271C11.4284 0.333762 11.5001 0.372875 11.324 0.243883C11.1095 0.0855371 10.8553 0 10.5887 0H1.71453C1.00094 0 0.42041 0.617723 0.42041 1.37698V17.623C0.42041 18.3823 1.00094 19 1.71453 19H13.2855C13.9991 19 14.5796 18.3823 14.5796 17.623V16.8347C14.5796 16.681 14.4625 16.5564 14.318 16.5564C14.1736 16.5564 14.0565 16.681 14.0565 16.8347V17.623C14.0565 18.0754 13.7106 18.4434 13.2855 18.4434H1.71453C1.28941 18.4434 0.943499 18.0754 0.943499 17.623V1.37698C0.943499 0.924617 1.28938 0.556603 1.71453 0.556603H10.5887C10.6453 0.556603 10.7008 0.563654 10.7548 0.576234V3.11017C10.7548 3.6392 11.1593 4.0696 11.6565 4.0696H14.038C14.0498 4.12708 14.0565 4.18612 14.0565 4.24639V15.5286C14.0565 15.6823 14.1736 15.8069 14.318 15.8069ZM11.6565 3.513C11.4478 3.513 11.2779 3.33227 11.2779 3.11014V0.950148L13.6866 3.513H11.6565Z" fill="#818181"/>
<path d="M2.41194 4.62587C2.26747 4.62587 2.15039 4.75048 2.15039 4.90415V7.39527C2.15039 7.902 2.53781 8.31424 3.01409 8.31424H6.08615C6.5624 8.31424 6.94985 7.902 6.94985 7.39527V3.34218C6.94985 2.83545 6.56243 2.4232 6.08615 2.4232H3.01409C2.53784 2.4232 2.15039 2.83545 2.15039 3.34218V3.6031C2.15039 3.7568 2.26747 3.88138 2.41194 3.88138C2.5564 3.88138 2.67348 3.75677 2.67348 3.6031V3.34218C2.67348 3.14238 2.82628 2.97981 3.01406 2.97981H6.08611C6.27389 2.97981 6.42669 3.14238 6.42669 3.34218V6.60725C6.18834 6.32125 5.89369 6.09191 5.56093 5.93665C5.69329 5.72902 5.77075 5.47864 5.77075 5.20941C5.77075 4.49328 5.22318 3.91062 4.55012 3.91062C3.87706 3.91062 3.32945 4.49324 3.32945 5.20941C3.32945 5.47868 3.40688 5.72902 3.53927 5.93665C3.20651 6.09195 2.91187 6.32125 2.67351 6.60725V4.90415C2.67351 4.75044 2.55643 4.62587 2.41194 4.62587ZM4.55012 4.46723C4.93471 4.46723 5.24763 4.80017 5.24763 5.20941C5.24763 5.61866 4.93471 5.9516 4.55012 5.9516C4.16549 5.9516 3.85257 5.61866 3.85257 5.20941C3.85257 4.80017 4.16549 4.46723 4.55012 4.46723ZM3.97928 6.35695C4.14976 6.45336 4.34399 6.5082 4.55012 6.5082C4.75624 6.5082 4.95051 6.45336 5.12095 6.35695C5.69273 6.53878 6.15482 6.98287 6.38386 7.57083C6.32565 7.68212 6.21408 7.75768 6.08615 7.75768H3.01409C2.88616 7.75768 2.77459 7.68216 2.71638 7.57087C2.94538 6.98287 3.40744 6.53878 3.97928 6.35695Z" fill="#818181"/>
<path d="M12.5877 10.137H2.43513C2.29067 10.137 2.17358 10.2616 2.17358 10.4153C2.17358 10.5689 2.29067 10.6935 2.43513 10.6935H12.5877C12.7321 10.6935 12.8492 10.5689 12.8492 10.4153C12.8492 10.2616 12.7322 10.137 12.5877 10.137Z" fill="#818181"/>
<path d="M12.5877 12.0583H2.43513C2.29067 12.0583 2.17358 12.1829 2.17358 12.3366C2.17358 12.4903 2.29067 12.6149 2.43513 12.6149H12.5877C12.7321 12.6149 12.8492 12.4902 12.8492 12.3366C12.8493 12.1829 12.7322 12.0583 12.5877 12.0583Z" fill="#818181"/>
<path d="M12.8493 14.2579C12.8493 14.1042 12.7322 13.9796 12.5877 13.9796H2.43513C2.29067 13.9796 2.17358 14.1042 2.17358 14.2579C2.17358 14.4116 2.29067 14.5361 2.43513 14.5361H12.5877C12.7322 14.5361 12.8493 14.4115 12.8493 14.2579Z" fill="#818181"/>
<path d="M2.43513 15.9009C2.29067 15.9009 2.17358 16.0255 2.17358 16.1791C2.17358 16.3328 2.29067 16.4574 2.43513 16.4574H7.49972C7.64418 16.4574 7.76126 16.3328 7.76126 16.1791C7.76126 16.0255 7.64418 15.9009 7.49972 15.9009H2.43513Z" fill="#818181"/>
<path d="M12.5876 6.88401H8.857C8.71254 6.88401 8.59546 7.00863 8.59546 7.1623C8.59546 7.316 8.71254 7.44058 8.857 7.44058H12.5876C12.7321 7.44058 12.8492 7.31597 12.8492 7.1623C12.8492 7.00859 12.7321 6.88401 12.5876 6.88401Z" fill="#818181"/>
<path d="M12.5876 5.37503H8.857C8.71254 5.37503 8.59546 5.49964 8.59546 5.65331C8.59546 5.80698 8.71254 5.93159 8.857 5.93159H12.5876C12.7321 5.93159 12.8492 5.80698 12.8492 5.65331C12.8492 5.49964 12.7321 5.37503 12.5876 5.37503Z" fill="#818181"/>
<path d="M14.3178 15.8069C14.4623 15.8069 14.5793 15.6823 14.5793 15.5286V4.24639C14.5793 3.8642 14.4335 3.52079 14.2003 3.27271C11.4281 0.333762 11.4998 0.372875 11.3238 0.243883C11.1092 0.0855371 10.8551 0 10.5884 0H1.71429C1.0007 0 0.420166 0.617723 0.420166 1.37698V17.623C0.420166 18.3823 1.0007 19 1.71429 19H13.2852C13.9988 19 14.5793 18.3823 14.5793 17.623V16.8347C14.5793 16.681 14.4623 16.5564 14.3178 16.5564C14.1733 16.5564 14.0563 16.681 14.0563 16.8347V17.623C14.0563 18.0754 13.7104 18.4434 13.2852 18.4434H1.71429C1.28917 18.4434 0.943255 18.0754 0.943255 17.623V1.37698C0.943255 0.924617 1.28913 0.556603 1.71429 0.556603H10.5884C10.645 0.556603 10.7005 0.563654 10.7545 0.576234V3.11017C10.7545 3.6392 11.1591 4.0696 11.6562 4.0696H14.0378C14.0496 4.12708 14.0562 4.18612 14.0562 4.24639V15.5286C14.0563 15.6823 14.1733 15.8069 14.3178 15.8069ZM11.6563 3.513C11.4475 3.513 11.2777 3.33227 11.2777 3.11014V0.950148L13.6863 3.513H11.6563Z" fill="#818181"/>
<path d="M2.41169 4.62587C2.26723 4.62587 2.15015 4.75048 2.15015 4.90415V7.39527C2.15015 7.902 2.53756 8.31424 3.01385 8.31424H6.0859C6.56215 8.31424 6.9496 7.902 6.9496 7.39527V3.34218C6.9496 2.83545 6.56219 2.4232 6.0859 2.4232H3.01385C2.5376 2.4232 2.15015 2.83545 2.15015 3.34218V3.6031C2.15015 3.7568 2.26723 3.88138 2.41169 3.88138C2.55615 3.88138 2.67324 3.75677 2.67324 3.6031V3.34218C2.67324 3.14238 2.82603 2.97981 3.01381 2.97981H6.08587C6.27365 2.97981 6.42644 3.14238 6.42644 3.34218V6.60725C6.18809 6.32125 5.89345 6.09191 5.56069 5.93665C5.69304 5.72902 5.77051 5.47864 5.77051 5.20941C5.77051 4.49328 5.22293 3.91062 4.54987 3.91062C3.87681 3.91062 3.32921 4.49324 3.32921 5.20941C3.32921 5.47868 3.40663 5.72902 3.53903 5.93665C3.20626 6.09195 2.91162 6.32125 2.67327 6.60725V4.90415C2.67327 4.75044 2.55619 4.62587 2.41169 4.62587ZM4.54987 4.46723C4.93447 4.46723 5.24738 4.80017 5.24738 5.20941C5.24738 5.61866 4.93447 5.9516 4.54987 5.9516C4.16525 5.9516 3.85233 5.61866 3.85233 5.20941C3.85233 4.80017 4.16525 4.46723 4.54987 4.46723ZM3.97904 6.35695C4.14952 6.45336 4.34375 6.5082 4.54987 6.5082C4.756 6.5082 4.95026 6.45336 5.12071 6.35695C5.69249 6.53878 6.15458 6.98287 6.38361 7.57083C6.3254 7.68212 6.21383 7.75768 6.0859 7.75768H3.01385C2.88592 7.75768 2.77434 7.68216 2.71613 7.57087C2.94514 6.98287 3.40719 6.53878 3.97904 6.35695Z" fill="#818181"/>
<path d="M12.588 10.137H2.43537C2.29091 10.137 2.17383 10.2616 2.17383 10.4153C2.17383 10.5689 2.29091 10.6935 2.43537 10.6935H12.5879C12.7324 10.6935 12.8495 10.5689 12.8495 10.4153C12.8495 10.2616 12.7324 10.137 12.588 10.137Z" fill="#818181"/>
<path d="M12.588 12.0583H2.43537C2.29091 12.0583 2.17383 12.1829 2.17383 12.3366C2.17383 12.4903 2.29091 12.6149 2.43537 12.6149H12.5879C12.7324 12.6149 12.8495 12.4902 12.8495 12.3366C12.8495 12.1829 12.7324 12.0583 12.588 12.0583Z" fill="#818181"/>
<path d="M12.8495 14.2579C12.8495 14.1042 12.7324 13.9796 12.588 13.9796H2.43537C2.29091 13.9796 2.17383 14.1042 2.17383 14.2579C2.17383 14.4116 2.29091 14.5361 2.43537 14.5361H12.5879C12.7324 14.5361 12.8495 14.4115 12.8495 14.2579Z" fill="#818181"/>
<path d="M2.43537 15.9009C2.29091 15.9009 2.17383 16.0255 2.17383 16.1791C2.17383 16.3328 2.29091 16.4574 2.43537 16.4574H7.49996C7.64443 16.4574 7.76151 16.3328 7.76151 16.1791C7.76151 16.0255 7.64443 15.9009 7.49996 15.9009H2.43537Z" fill="#818181"/>
<path d="M12.5879 6.88401H8.85725C8.71279 6.88401 8.5957 7.00863 8.5957 7.1623C8.5957 7.316 8.71279 7.44058 8.85725 7.44058H12.5879C12.7323 7.44058 12.8494 7.31597 12.8494 7.1623C12.8494 7.00859 12.7323 6.88401 12.5879 6.88401Z" fill="#818181"/>
<path d="M12.5879 5.37503H8.85725C8.71279 5.37503 8.5957 5.49964 8.5957 5.65331C8.5957 5.80698 8.71279 5.93159 8.85725 5.93159H12.5879C12.7323 5.93159 12.8494 5.80698 12.8494 5.65331C12.8494 5.49964 12.7323 5.37503 12.5879 5.37503Z" fill="#818181"/>
<path d="M14.318 15.8069C14.4625 15.8069 14.5796 15.6823 14.5796 15.5286V4.24639C14.5796 3.8642 14.4337 3.52079 14.2006 3.27271C11.4284 0.333762 11.5001 0.372875 11.324 0.243883C11.1095 0.0855371 10.8553 0 10.5887 0H1.71453C1.00094 0 0.42041 0.617723 0.42041 1.37698V17.623C0.42041 18.3823 1.00094 19 1.71453 19H13.2855C13.9991 19 14.5796 18.3823 14.5796 17.623V16.8347C14.5796 16.681 14.4625 16.5564 14.318 16.5564C14.1736 16.5564 14.0565 16.681 14.0565 16.8347V17.623C14.0565 18.0754 13.7106 18.4434 13.2855 18.4434H1.71453C1.28941 18.4434 0.943499 18.0754 0.943499 17.623V1.37698C0.943499 0.924617 1.28938 0.556603 1.71453 0.556603H10.5887C10.6453 0.556603 10.7008 0.563654 10.7548 0.576234V3.11017C10.7548 3.6392 11.1593 4.0696 11.6565 4.0696H14.038C14.0498 4.12708 14.0565 4.18612 14.0565 4.24639V15.5286C14.0565 15.6823 14.1736 15.8069 14.318 15.8069ZM11.6565 3.513C11.4478 3.513 11.2779 3.33227 11.2779 3.11014V0.950148L13.6866 3.513H11.6565Z" fill="#818181"/>
<path d="M2.41194 4.62587C2.26747 4.62587 2.15039 4.75048 2.15039 4.90415V7.39527C2.15039 7.902 2.53781 8.31424 3.01409 8.31424H6.08615C6.5624 8.31424 6.94985 7.902 6.94985 7.39527V3.34218C6.94985 2.83545 6.56243 2.4232 6.08615 2.4232H3.01409C2.53784 2.4232 2.15039 2.83545 2.15039 3.34218V3.6031C2.15039 3.7568 2.26747 3.88138 2.41194 3.88138C2.5564 3.88138 2.67348 3.75677 2.67348 3.6031V3.34218C2.67348 3.14238 2.82628 2.97981 3.01406 2.97981H6.08611C6.27389 2.97981 6.42669 3.14238 6.42669 3.34218V6.60725C6.18834 6.32125 5.89369 6.09191 5.56093 5.93665C5.69329 5.72902 5.77075 5.47864 5.77075 5.20941C5.77075 4.49328 5.22318 3.91062 4.55012 3.91062C3.87706 3.91062 3.32945 4.49324 3.32945 5.20941C3.32945 5.47868 3.40688 5.72902 3.53927 5.93665C3.20651 6.09195 2.91187 6.32125 2.67351 6.60725V4.90415C2.67351 4.75044 2.55643 4.62587 2.41194 4.62587ZM4.55012 4.46723C4.93471 4.46723 5.24763 4.80017 5.24763 5.20941C5.24763 5.61866 4.93471 5.9516 4.55012 5.9516C4.16549 5.9516 3.85257 5.61866 3.85257 5.20941C3.85257 4.80017 4.16549 4.46723 4.55012 4.46723ZM3.97928 6.35695C4.14976 6.45336 4.34399 6.5082 4.55012 6.5082C4.75624 6.5082 4.95051 6.45336 5.12095 6.35695C5.69273 6.53878 6.15482 6.98287 6.38386 7.57083C6.32565 7.68212 6.21408 7.75768 6.08615 7.75768H3.01409C2.88616 7.75768 2.77459 7.68216 2.71638 7.57087C2.94538 6.98287 3.40744 6.53878 3.97928 6.35695Z" fill="#818181"/>
<path d="M12.5877 10.137H2.43513C2.29067 10.137 2.17358 10.2616 2.17358 10.4153C2.17358 10.5689 2.29067 10.6935 2.43513 10.6935H12.5877C12.7321 10.6935 12.8492 10.5689 12.8492 10.4153C12.8492 10.2616 12.7322 10.137 12.5877 10.137Z" fill="#818181"/>
<path d="M12.5877 12.0583H2.43513C2.29067 12.0583 2.17358 12.1829 2.17358 12.3366C2.17358 12.4903 2.29067 12.6149 2.43513 12.6149H12.5877C12.7321 12.6149 12.8492 12.4902 12.8492 12.3366C12.8493 12.1829 12.7322 12.0583 12.5877 12.0583Z" fill="#818181"/>
<path d="M12.8493 14.2579C12.8493 14.1042 12.7322 13.9796 12.5877 13.9796H2.43513C2.29067 13.9796 2.17358 14.1042 2.17358 14.2579C2.17358 14.4116 2.29067 14.5361 2.43513 14.5361H12.5877C12.7322 14.5361 12.8493 14.4115 12.8493 14.2579Z" fill="#818181"/>
<path d="M2.43513 15.9009C2.29067 15.9009 2.17358 16.0255 2.17358 16.1791C2.17358 16.3328 2.29067 16.4574 2.43513 16.4574H7.49972C7.64418 16.4574 7.76126 16.3328 7.76126 16.1791C7.76126 16.0255 7.64418 15.9009 7.49972 15.9009H2.43513Z" fill="#818181"/>
<path d="M12.5876 6.88401H8.857C8.71254 6.88401 8.59546 7.00863 8.59546 7.1623C8.59546 7.316 8.71254 7.44058 8.857 7.44058H12.5876C12.7321 7.44058 12.8492 7.31597 12.8492 7.1623C12.8492 7.00859 12.7321 6.88401 12.5876 6.88401Z" fill="#818181"/>
<path d="M12.5876 5.37503H8.857C8.71254 5.37503 8.59546 5.49964 8.59546 5.65331C8.59546 5.80698 8.71254 5.93159 8.857 5.93159H12.5876C12.7321 5.93159 12.8492 5.80698 12.8492 5.65331C12.8492 5.49964 12.7321 5.37503 12.5876 5.37503Z" fill="#818181"/>
<path d="M14.3178 15.8069C14.4623 15.8069 14.5793 15.6823 14.5793 15.5286V4.24639C14.5793 3.8642 14.4335 3.52079 14.2003 3.27271C11.4281 0.333762 11.4998 0.372875 11.3238 0.243883C11.1092 0.0855371 10.8551 0 10.5884 0H1.71429C1.0007 0 0.420166 0.617723 0.420166 1.37698V17.623C0.420166 18.3823 1.0007 19 1.71429 19H13.2852C13.9988 19 14.5793 18.3823 14.5793 17.623V16.8347C14.5793 16.681 14.4623 16.5564 14.3178 16.5564C14.1733 16.5564 14.0563 16.681 14.0563 16.8347V17.623C14.0563 18.0754 13.7104 18.4434 13.2852 18.4434H1.71429C1.28917 18.4434 0.943255 18.0754 0.943255 17.623V1.37698C0.943255 0.924617 1.28913 0.556603 1.71429 0.556603H10.5884C10.645 0.556603 10.7005 0.563654 10.7545 0.576234V3.11017C10.7545 3.6392 11.1591 4.0696 11.6562 4.0696H14.0378C14.0496 4.12708 14.0562 4.18612 14.0562 4.24639V15.5286C14.0563 15.6823 14.1733 15.8069 14.3178 15.8069ZM11.6563 3.513C11.4475 3.513 11.2777 3.33227 11.2777 3.11014V0.950148L13.6863 3.513H11.6563Z" fill="#818181"/>
<path d="M2.41169 4.62587C2.26723 4.62587 2.15015 4.75048 2.15015 4.90415V7.39527C2.15015 7.902 2.53756 8.31424 3.01385 8.31424H6.0859C6.56215 8.31424 6.9496 7.902 6.9496 7.39527V3.34218C6.9496 2.83545 6.56219 2.4232 6.0859 2.4232H3.01385C2.5376 2.4232 2.15015 2.83545 2.15015 3.34218V3.6031C2.15015 3.7568 2.26723 3.88138 2.41169 3.88138C2.55615 3.88138 2.67324 3.75677 2.67324 3.6031V3.34218C2.67324 3.14238 2.82603 2.97981 3.01381 2.97981H6.08587C6.27365 2.97981 6.42644 3.14238 6.42644 3.34218V6.60725C6.18809 6.32125 5.89345 6.09191 5.56069 5.93665C5.69304 5.72902 5.77051 5.47864 5.77051 5.20941C5.77051 4.49328 5.22293 3.91062 4.54987 3.91062C3.87681 3.91062 3.32921 4.49324 3.32921 5.20941C3.32921 5.47868 3.40663 5.72902 3.53903 5.93665C3.20626 6.09195 2.91162 6.32125 2.67327 6.60725V4.90415C2.67327 4.75044 2.55619 4.62587 2.41169 4.62587ZM4.54987 4.46723C4.93447 4.46723 5.24738 4.80017 5.24738 5.20941C5.24738 5.61866 4.93447 5.9516 4.54987 5.9516C4.16525 5.9516 3.85233 5.61866 3.85233 5.20941C3.85233 4.80017 4.16525 4.46723 4.54987 4.46723ZM3.97904 6.35695C4.14952 6.45336 4.34375 6.5082 4.54987 6.5082C4.756 6.5082 4.95026 6.45336 5.12071 6.35695C5.69249 6.53878 6.15458 6.98287 6.38361 7.57083C6.3254 7.68212 6.21383 7.75768 6.0859 7.75768H3.01385C2.88592 7.75768 2.77434 7.68216 2.71613 7.57087C2.94514 6.98287 3.40719 6.53878 3.97904 6.35695Z" fill="#818181"/>
</svg>
